<?xml version="1.0" standalone="no"?>
<!DOCTYPE svg PUBLIC "-//W3C//DTD SVG 20010904//EN"
 "http://www.w3.org/TR/2001/REC-SVG-20010904/DTD/svg10.dtd">
<svg version="1.0" xmlns="http://www.w3.org/2000/svg"
 width="70.000000pt" height="70.000000pt" viewBox="0 0 70.000000 70.000000"
 preserveAspectRatio="xMidYMid meet">
<metadata>
Created by potrace 1.11, written by Peter Selinger 2001-2013
</metadata>
<g transform="translate(0.000000,70.000000) scale(0.100000,-0.100000)"
fill="#000000" stroke="none">
<path d="M187 639 c-128 -30 -194 -127 -185 -273 8 -116 73 -214 170 -256 67
-29 179 -25 250 9 147 70 223 247 142 332 -66 69 -217 73 -278 7 -25 -28 -28
-36 -23 -81 5 -58 31 -87 78 -87 29 0 29 1 28 56 -2 59 7 74 47 74 31 0 43
-19 50 -82 12 -102 -8 -126 -112 -133 -93 -6 -161 33 -183 104 -34 113 11 210
110 240 24 7 79 13 122 12 57 0 77 3 77 13 0 54 -175 93 -293 65z"/>
<path d="M572 633 c-24 -5 -65 -60 -56 -75 3 -4 -1 -8 -8 -8 -7 -1 3 -9 23
-20 52 -27 100 -13 136 41 18 28 23 43 16 50 -12 12 -78 19 -111 12z"/>
<path d="M567 493 c-12 -11 -8 -22 14 -34 28 -14 48 3 29 26 -13 16 -32 20
-43 8z"/>
<path d="M55 141 c-3 -5 -1 -12 5 -16 12 -7 30 2 30 16 0 12 -27 12 -35 0z"/>
<path d="M93 112 c-18 -12 -19 -44 -1 -55 12 -8 21 -7 33 3 32 26 3 75 -32 52z"/>
</g>
</svg>
